# xmcd
#
# Track frame offsets:
#	150
#	20130
#	42757
#	59852
#	78590
#	98685
#	121767
#	137477
#	158432
#	174697
#	191947
#	209562
#
# Disc length: 3062 seconds
#
# Revision: 0
# Processed by: cddbd v1.4PL0 Copyright (c) Steve Scherf et al.
# Submitted via: EasyCDDAExtractor 4.5.0.2
#
DISCID=a80bf40c
DTITLE=Wayne perkins - mendo hotel
DYEAR=1995
DGENRE=Blues
TTITLE0=Just Dropped In
TTITLE1=Big Stratocaster
TTITLE2=Ramblin' Heart
TTITLE3=Little Girl Eyes
TTITLE4=Mendo Hotel
TTITLE5=Money No Gold
TTITLE6=Piss Outside
TTITLE7=Just Can't Come To The Phone
TTITLE8=Fool To Fool With You
TTITLE9=Where Did Love Go
TTITLE10=Diva Down
TTITLE11=Apache Road
EXTD=
EXTT0=
EXTT1=
EXTT2=
EXTT3=
EXTT4=
EXTT5=
EXTT6=
EXTT7=
EXTT8=
EXTT9=
EXTT10=
EXTT11=
PLAYORDER=
